<svg width="61" height="16" viewBox="0 0 61 16" fill="none" xmlns="http://www.w3.org/2000/svg">
<path d="M7.28148 7.65936C7.06332 8.10101 6.84675 8.59452 6.63357 9.14576C6.66101 9.162 6.69091 9.17887 6.72335 9.19626C7.12287 9.41045 7.73316 9.6118 8.3446 9.70765C8.91705 9.79738 9.46513 9.80004 9.85663 9.75C9.7942 9.19304 9.7568 8.65341 9.74494 8.13507C8.95944 7.91928 8.11541 7.75545 7.28148 7.65936Z" fill="black"/>
<path d="M7.947 6.47157C8.48347 5.63433 9.01869 5.0712 9.52669 4.69659C9.78497 4.50613 10.0439 4.35872 10.3036 4.24739C10.1643 4.60372 10.0548 4.98194 9.97142 5.37181C9.84933 5.94265 9.77625 6.5672 9.75092 7.23547C9.44112 7.15136 8.52633 6.9332 7.72021 6.84245C7.79579 6.71322 7.87141 6.58967 7.947 6.47157Z" fill="black"/>
<path fill-rule="evenodd" clip-rule="evenodd" d="M0.87868 0.87868C0 1.75736 0 3.17157 0 6V10C0 12.8284 0 14.2426 0.87868 15.1213C1.75736 16 3.17157 16 6 16H10C12.8284 16 14.2426 16 15.1213 15.1213C16 14.2426 16 12.8284 16 10V6C16 3.17157 16 1.75736 15.1213 0.87868C14.2426 0 12.8284 0 10 0H6C3.17157 0 1.75736 0 0.87868 0.87868ZM11.019 3.01215C11.5178 2.93618 12.0102 2.94281 12.4882 2.9984C12.1186 3.21085 11.805 3.53679 11.5499 3.96177C11.4828 4.07349 11.4198 4.19206 11.3609 4.3172C10.8891 5.31919 10.6796 6.74306 10.7563 8.45392C12.7941 9.1877 14.1165 10.2819 13.1643 11.3787C11.9035 12.831 8.85391 13.9534 5.14665 11.9954C3.69361 11.228 1.26827 8.7199 3.29652 7.88388C4.08138 7.61707 5.11094 7.52694 6.21362 7.57409C7.68317 4.41168 9.36664 3.27583 10.9857 3.01735L11.019 3.01215Z" fill="black"/>
<path d="M21.368 13H20.144L23.312 4.324H24.62L27.8 13H26.564L25.784 10.84H22.136L21.368 13ZM23.816 6.196L22.496 9.82H25.436L24.104 6.196C24.044 6.028 23.984 5.824 23.96 5.692C23.936 5.812 23.876 6.016 23.816 6.196ZM28.4013 15.628V7.132H29.4213L29.5053 8.188C29.9013 7.384 30.6933 6.964 31.6293 6.964C33.3093 6.964 34.3533 8.224 34.3533 10.024C34.3533 11.812 33.3693 13.156 31.6293 13.156C30.6933 13.156 29.9133 12.76 29.5293 12.04V15.628H28.4013ZM29.5413 10.072C29.5413 11.272 30.2373 12.136 31.3893 12.136C32.5413 12.136 33.2253 11.272 33.2253 10.072C33.2253 8.86 32.5413 7.996 31.3893 7.996C30.2373 7.996 29.5413 8.848 29.5413 10.072ZM35.2366 15.628V7.132H36.2566L36.3406 8.188C36.7366 7.384 37.5286 6.964 38.4646 6.964C40.1446 6.964 41.1886 8.224 41.1886 10.024C41.1886 11.812 40.2046 13.156 38.4646 13.156C37.5286 13.156 36.7486 12.76 36.3646 12.04V15.628H35.2366ZM36.3766 10.072C36.3766 11.272 37.0726 12.136 38.2246 12.136C39.3766 12.136 40.0606 11.272 40.0606 10.072C40.0606 8.86 39.3766 7.996 38.2246 7.996C37.0726 7.996 36.3766 8.848 36.3766 10.072ZM43.2542 13L40.6742 4.324H41.8982L43.4822 9.628C43.6022 10.084 43.7222 10.54 43.8422 11.2C43.9862 10.504 44.1182 10.084 44.2502 9.628L45.8942 4.324H47.1662L48.7982 9.628C48.9422 10.096 49.0622 10.552 49.1942 11.2C49.3382 10.468 49.4582 10.024 49.5782 9.64L51.1742 4.324H52.3742L49.7582 13H48.6302L46.5302 6.136L44.4062 13H43.2542ZM53.5608 5.74C53.1528 5.74 52.8168 5.404 52.8168 4.996C52.8168 4.576 53.1528 4.252 53.5608 4.252C53.9688 4.252 54.3048 4.576 54.3048 4.996C54.3048 5.404 53.9688 5.74 53.5608 5.74ZM53.0088 13V7.132H54.1368V13H53.0088ZM59.6264 13H55.0544V12.088L58.2224 8.08H55.0544V7.132H59.6264V8.056L56.4344 12.052H59.6264V13Z" fill="black"/>
</svg>
